<svg xmlns="http://www.w3.org/2000/svg" version="1.1" xmlns:xlink="http://www.w3.org/1999/xlink" width="452.00021" height="452"><svg width="452.00021" height="452" viewBox="0 0 452.00021 452" version="1.1" id="SvgjsSvg1083" xmlns="http://www.w3.org/2000/svg" xmlns:svg="http://www.w3.org/2000/svg">
  <defs id="SvgjsDefs1082"></defs>
  <g id="SvgjsG1081" transform="translate(-30,-29.999998)">
    <g id="SvgjsG1080" transform="matrix(1.0074787,0,0,1.0036227,-2.6832978,-11.871757)">
      <path d="m 150.10894,368.98824 q -4.78516,0 -9.57032,-1.59505 -4.78516,-1.59505 -8.88672,-4.78516 -3.8737,-3.19011 -6.38022,-7.97527 -2.50651,-4.78516 -2.50651,-11.16537 0,-16.40626 5.92449,-30.30601 5.92448,-14.12761 15.95053,-24.38153 10.02605,-10.25391 23.47007,-15.95053 13.67188,-5.92448 28.93882,-5.92448 13.44402,0 23.69793,3.1901 10.48178,2.96225 18.91277,7.97527 8.431,5.01303 15.26694,11.16537 6.83594,6.15235 12.98829,12.53256 5.01303,5.24089 10.25392,10.02605 5.24089,4.78516 10.9375,8.65886 5.69662,3.64584 12.07683,5.92449 6.60808,2.27864 14.12762,2.27864 8.20313,0 14.12761,-7.51953 6.15235,-7.51954 7.06381,-19.36851 1.13932,-12.30469 7.97527,-20.05209 6.83594,-7.97527 19.14063,-7.97527 12.98829,0 20.27997,7.7474 7.29167,7.51954 6.83594,20.50783 -0.45573,16.40626 -6.15235,30.07814 -5.69662,13.67189 -15.26694,23.69794 -9.57032,9.79818 -22.33074,15.26694 -12.76043,5.46875 -26.88804,5.46875 -17.08986,0 -29.85028,-3.41797 -12.76043,-3.64584 -22.55861,-9.11459 -9.57032,-5.69662 -17.08986,-12.53256 -7.51953,-7.06381 -14.12761,-13.67189 -4.5573,-4.55729 -8.88673,-8.65886 -4.10156,-4.32943 -8.88672,-7.51953 -4.5573,-3.19011 -10.02605,-5.01303 -5.24089,-2.05078 -11.6211,-2.05078 -5.46876,0 -9.34246,2.96224 -3.8737,2.96224 -6.60807,7.97527 -2.50652,5.01302 -4.10157,11.39323 -1.59505,6.15235 -2.50651,12.53257 -1.36719,9.57031 -8.20313,14.58334 -6.83594,5.01302 -16.1784,5.01302 z" id="SvgjsPath1079" style="font-size:466.667px;line-height:20;font-family:'Autour One';-inkscape-font-specification:'Autour One';text-align:center;letter-spacing:20px;text-anchor:middle;stroke-width:10;stroke-linecap:round;stroke-linejoin:round;stroke-dasharray:10.4358, 20.8715;paint-order:stroke fill markers" aria-label="~"></path>
      <path d="m 150.10894,259.38531 q -4.78516,0 -9.57032,-1.59506 -4.78516,-1.59505 -8.88672,-4.78516 -3.8737,-3.1901 -6.38022,-7.97526 -2.50651,-4.78516 -2.50651,-11.16537 0,-16.40627 5.92449,-30.30601 5.92448,-14.12762 15.95053,-24.38153 10.02605,-10.25392 23.47007,-15.95053 13.67188,-5.92449 28.93882,-5.92449 13.44402,0 23.69793,3.19011 10.48178,2.96224 18.91277,7.97527 8.431,5.01302 15.26694,11.16537 6.83594,6.15235 12.98829,12.53256 5.01303,5.24089 10.25392,10.02605 5.24089,4.78516 10.9375,8.65886 5.69662,3.64583 12.07683,5.92448 6.60808,2.27865 14.12762,2.27865 8.20313,0 14.12761,-7.51954 6.15235,-7.51954 7.06381,-19.3685 1.13932,-12.3047 7.97527,-20.0521 6.83594,-7.97526 19.14063,-7.97526 12.98829,0 20.27997,7.7474 7.29167,7.51953 6.83594,20.50782 -0.45573,16.40626 -6.15235,30.07815 -5.69662,13.67188 -15.26694,23.69793 -9.57032,9.79819 -22.33074,15.26694 -12.76043,5.46875 -26.88804,5.46875 -17.08986,0 -29.85028,-3.41797 -12.76043,-3.64583 -22.55861,-9.11459 -9.57032,-5.69662 -17.08986,-12.53256 -7.51953,-7.0638 -14.12761,-13.67188 -4.5573,-4.5573 -8.88673,-8.65886 -4.10156,-4.32943 -8.88672,-7.51954 -4.5573,-3.19011 -10.02605,-5.01302 -5.24089,-2.05079 -11.6211,-2.05079 -5.46876,0 -9.34246,2.96225 -3.8737,2.96224 -6.60807,7.97526 -2.50652,5.01303 -4.10157,11.39324 -1.59505,6.15235 -2.50651,12.53256 -1.36719,9.57032 -8.20313,14.58334 -6.83594,5.01303 -16.1784,5.01303 z" id="SvgjsPath1078" style="font-size:466.667px;line-height:20;font-family:'Autour One';-inkscape-font-specification:'Autour One';text-align:center;letter-spacing:20px;text-anchor:middle;stroke-width:10;stroke-linecap:round;stroke-linejoin:round;stroke-dasharray:10.4358, 20.8715;paint-order:stroke fill markers" aria-label="~"></path>
    </g>
    <g id="SvgjsG1077" transform="matrix(1,0,0,0.92563365,0,19.037774)">
      <path d="m 30,460.73648 q 0,-47.168 1.139323,-94.56386 1.367189,-47.62374 1.822918,-96.61466 v -23.2422 q 0,-47.39587 -1.367188,-95.93106 -1.367189,-48.53519 -1.367189,-101.62767 0,-35.5469 26.88804,-35.5469 h 51.041706 q 5.24089,0 10.70964,-0.45573 5.46875,-0.683594 11.6211,-0.911459 6.60808,0 10.70964,2.278648 4.32943,2.050782 6.83595,5.468754 2.50651,3.190106 3.41797,7.519536 1.13932,4.101565 1.13932,8.203131 0,9.114589 -3.64584,14.127614 -3.64583,5.013024 -8.65886,7.519536 -5.01302,2.278648 -10.25391,2.962242 -5.24089,0.455729 -8.43099,0.455729 -3.19011,0 -7.06381,-0.227864 -3.64584,-0.227865 -9.79819,-0.227865 H 81.953161 L 81.269567,448.43179 q 5.696618,0 9.342454,0 3.873701,0 6.380213,-0.22787 2.506512,0 4.101566,-0.22786 1.59505,0 2.96224,0 l 13.89975,-0.45573 q 6.38021,0 11.16537,2.50651 4.78516,2.50651 7.7474,6.15235 3.19011,3.8737 4.78516,8.43099 1.59506,4.5573 1.59506,8.65886 0,3.41798 -1.13933,7.29168 -0.91146,4.10156 -3.1901,7.7474 -2.27865,3.64583 -6.15235,6.38021 -3.64584,2.96224 -8.88673,4.10157 -5.46875,1.36718 -12.07683,1.36718 -1.36719,0 -3.8737,-0.22786 -2.27865,0 -7.7474,-0.22787 -5.240889,0 -14.811208,-0.45572 -9.570319,-0.22787 -25.292986,-0.91146 -9.342455,0 -15.266938,-3.41798 -5.924484,-3.41797 -9.342455,-8.88672 -3.190106,-5.24089 -4.32943,-12.07683 Q 30,467.34456 30,460.73648 Z" id="SvgjsPath1076" style="font-size:466.667px;line-height:20;font-family:'Autour One';-inkscape-font-specification:'Autour One';text-align:center;letter-spacing:20px;text-anchor:middle;stroke-width:10;stroke-linecap:round;stroke-linejoin:round;stroke-dasharray:10.4358, 20.8715;paint-order:stroke fill markers" aria-label="["></path>
      <path d="m 359.40899,427.46823 z m 122.59123,33.26825 q 0,-47.168 -1.36719,-94.56386 -1.13933,-47.62374 -1.59506,-96.61466 v -23.2422 q 0,-47.39587 1.36719,-95.93106 1.36719,-48.53519 1.36719,-101.62767 0,-35.5469 -26.88804,-35.5469 h -51.0417 q -5.24089,0 -10.70964,-0.45573 -5.46876,-0.683594 -11.6211,-0.911459 -6.60808,0 -10.93751,2.278648 -4.10157,2.050782 -6.60808,5.468754 -2.50651,3.190106 -3.64584,7.519536 -0.91145,4.101565 -0.91145,8.203131 0,9.114589 3.64583,14.127614 3.64584,5.013024 8.65886,7.519536 5.01303,2.278648 10.25391,2.962242 5.24089,0.455729 8.431,0.455729 3.19011,0 6.83594,-0.227864 3.8737,-0.227865 10.02605,-0.227865 h 22.78648 l 0.68359,388.509388 q -5.69662,0 -9.57032,0 -3.64584,0 -6.15235,-0.22787 -2.50651,0 -4.10156,-0.22786 -1.59506,0 -2.96224,0 l -13.89975,-0.45573 q -6.38022,0 -11.16538,2.50651 -4.78516,2.50651 -7.97526,6.15235 -2.96224,3.8737 -4.5573,8.43099 -1.59505,4.5573 -1.59505,8.65886 0,3.41798 0.91146,7.29168 1.13932,4.10156 3.41797,7.7474 2.27865,3.64583 5.92448,6.38021 3.8737,2.96224 9.11459,4.10157 5.46876,1.36718 12.07683,1.36718 1.36719,0 3.64584,-0.22786 2.50651,0 7.7474,-0.22787 5.46875,0 15.03907,-0.45572 9.57032,-0.22787 25.29299,-0.91146 9.34245,0 15.26694,-3.41798 5.92448,-3.41797 9.11459,-8.88672 3.41797,-5.24089 4.55729,-12.07683 1.13933,-6.60808 1.13933,-13.21616 z" id="SvgjsPath1075" style="font-size:466.667px;line-height:20;font-family:'Autour One';-inkscape-font-specification:'Autour One';text-align:center;letter-spacing:20px;text-anchor:middle;stroke-width:10;stroke-linecap:round;stroke-linejoin:round;stroke-dasharray:10.4358, 20.8715;paint-order:stroke fill markers" aria-label="]"></path>
    </g>
  </g>
</svg><style>@media (prefers-color-scheme: light) { :root { filter: none; } }
@media (prefers-color-scheme: dark) { :root { filter: none; } }
</style></svg>